<svg width="75" height="80" viewBox="0 0 75 80" fill="none" xmlns="http://www.w3.org/2000/svg">
<path d="M20.7326 34.1506H24.9691V54.334H19.7239V39.802L14.6804 42.743V37.6395L20.7326 34.1506Z" fill="#2A562B"/>
<path d="M40.8591 43.7522C42.2808 44.1558 43.4144 44.7902 44.2598 45.6552C45.1244 46.501 45.5567 47.5774 45.5567 48.8845C45.5567 50.1724 45.1244 51.2681 44.2598 52.1715C43.4144 53.075 42.3673 53.7189 41.1184 54.1034C39.8696 54.4878 38.5054 54.68 37.026 54.68C35.5466 54.68 34.1824 54.4878 32.9336 54.1034C31.6847 53.7189 30.628 53.075 29.7634 52.1715C28.918 51.2681 28.4953 50.1724 28.4953 48.8845C28.4953 47.5582 28.9276 46.4721 29.7922 45.6263C30.6568 44.7613 31.8096 44.1366 33.2506 43.7522C30.4647 42.9833 29.0717 41.4455 29.0717 39.1388C29.0717 37.4088 29.8402 36.0921 31.3773 35.1886C32.9144 34.266 34.7973 33.8046 37.026 33.8046C39.2548 33.8046 41.1377 34.266 42.6747 35.1886C44.2118 36.0921 44.9803 37.4088 44.9803 39.1388C44.9803 41.4263 43.6066 42.9641 40.8591 43.7522ZM39.1299 38.4756C38.6303 38.0912 37.929 37.899 37.026 37.899C36.123 37.899 35.4121 38.0912 34.8933 38.4756C34.3938 38.8409 34.144 39.3118 34.144 39.8885C34.144 40.4652 34.3938 40.9457 34.8933 41.3302C35.4121 41.6954 36.123 41.878 37.026 41.878C37.929 41.878 38.6303 41.6954 39.1299 41.3302C39.6486 40.9457 39.908 40.4652 39.908 39.8885C39.908 39.3118 39.6486 38.8409 39.1299 38.4756ZM34.5475 49.9802C35.2007 50.3839 36.0269 50.5857 37.026 50.5857C38.0251 50.5857 38.8513 50.3839 39.5045 49.9802C40.1578 49.5765 40.4844 48.9999 40.4844 48.2502C40.4844 47.5005 40.1578 46.9238 39.5045 46.5202C38.8513 46.1165 38.0251 45.9147 37.026 45.9147C36.0269 45.9147 35.2007 46.1165 34.5475 46.5202C33.8942 46.9238 33.5676 47.5005 33.5676 48.2502C33.5676 48.9999 33.8942 49.5765 34.5475 49.9802Z" fill="#2A562B"/>
<path d="M59.7983 43.2043V46.6067H55.5906V50.7299H52.0745V46.6067H47.8668V43.2043H52.0745V39.0811H55.5906V43.2043H59.7983Z" fill="#2A562B"/>
<path fill-rule="evenodd" clip-rule="evenodd" d="M31.6352 0.0969913C29.1374 0.589324 27.3294 2.97894 27.4841 5.5847C27.603 7.46998 29.3991 11.7209 31.0762 14.0865C32.563 16.1759 34.6802 18.0371 36.5476 18.9017C37.2256 19.2139 37.2494 19.2139 37.6062 19.0098C41.1507 16.9444 44.4098 13.354 45.849 9.91964C46.4794 8.41862 47.086 6.16109 47.086 5.32052C47.086 2.67874 45.1472 0.445227 42.5186 0.060967C40.6155 -0.21522 38.641 0.661373 37.511 2.29448L37.2731 2.63071L36.8212 2.0303C35.6674 0.493259 33.5621 -0.287269 31.6352 0.0969913ZM42.7921 4.50397C43.5772 4.88823 43.5772 4.90024 40.1159 10.0037C38.3674 12.5734 36.8568 14.7469 36.7498 14.831C36.4405 15.0711 35.9648 15.0111 35.7031 14.7229C35.4295 14.4107 33.1577 11.0964 32.9436 10.7002C32.7771 10.388 32.8603 10.1958 33.1458 10.1958C33.2528 10.1958 34.0617 10.472 34.9418 10.7962C35.822 11.1204 36.5952 11.3966 36.6784 11.3966C36.7617 11.3966 37.4991 9.94365 38.3436 8.16645C39.1881 6.38925 39.9732 4.80418 40.1159 4.67209C40.2586 4.54 40.5084 4.37188 40.663 4.29983C41.0674 4.13172 42.2688 4.23979 42.7921 4.50397Z" fill="#C02F1B"/>
<path d="M37.2323 80C29.1356 80 21.194 77.3318 14.726 72.4296C7.99425 67.3259 3.15485 59.9882 1.10741 51.7973C-0.940033 43.5909 -0.133466 34.857 3.40302 27.1626C6.93951 19.4836 13.0353 13.1698 20.6046 9.40013L22.6831 13.5576C16.0754 16.8619 10.7242 22.3846 7.6375 29.1017C4.55083 35.8189 3.83733 43.4823 5.63659 50.6493C7.43585 57.8319 11.6703 64.2388 17.5645 68.7065C23.4586 73.1743 30.7643 75.5167 38.163 75.3151C45.5462 75.1134 52.7277 72.3521 58.3582 67.5585C63.9886 62.765 67.8508 56.1254 69.2468 48.8498C70.6428 41.5897 69.495 33.9728 66.0361 27.4418C62.5771 20.9108 56.9312 15.6984 50.1374 12.7665L51.9832 8.48486C59.7386 11.8202 66.1912 17.7772 70.1464 25.2545C74.1017 32.7162 75.4046 41.4035 73.8225 49.7185C72.2404 58.018 67.8198 65.6194 61.3828 71.0955C54.9458 76.5716 46.756 79.7208 38.3026 79.9535C37.9303 80 37.5891 80 37.2323 80Z" fill="#2A562B"/>
</svg>
