<svg width="73" height="81" viewBox="0 0 73 81" fill="none" xmlns="http://www.w3.org/2000/svg">
<path fill-rule="evenodd" clip-rule="evenodd" d="M30.4343 0.597009C27.9467 1.08943 26.1462 3.47947 26.3002 6.0857C26.4186 7.97131 28.2073 12.2229 29.8775 14.589C31.3582 16.6788 33.4667 18.5403 35.3264 19.4051C36.0016 19.7173 36.0253 19.7174 36.3807 19.5132C39.9106 17.4474 43.1563 13.8563 44.5896 10.4214C45.2174 8.92012 45.8215 6.66219 45.8215 5.82147C45.8215 3.17922 43.8907 0.945306 41.2729 0.560978C39.3776 0.284742 37.4112 1.16149 36.2859 2.79489L36.049 3.13117L35.5989 2.53066C34.4499 0.993347 32.3532 0.21268 30.4343 0.597009ZM41.5453 5.00478C42.3271 5.3891 42.3271 5.40111 38.8801 10.5055C37.1388 13.0757 35.6344 15.2495 35.5278 15.3336C35.2198 15.5738 34.746 15.5138 34.4854 15.2255C34.213 14.9132 31.9505 11.5984 31.7373 11.2021C31.5714 10.8898 31.6543 10.6976 31.9386 10.6976C32.0452 10.6976 32.8507 10.9739 33.7273 11.2982C34.6039 11.6224 35.3738 11.8987 35.4567 11.8987C35.5397 11.8987 36.2741 10.4454 37.1151 8.66791C37.9561 6.89039 38.7379 5.30503 38.8801 5.17292C39.0222 5.04081 39.271 4.87266 39.425 4.8006C39.8277 4.63246 41.0241 4.74055 41.5453 5.00478Z" fill="#C02F1B"/>
<path d="M36.0087 80.5C28.1781 80.5 20.4975 77.9194 14.242 73.1784C7.73153 68.2423 3.05117 61.1458 1.07101 53.2241C-0.90914 45.2874 -0.12908 36.8406 3.29118 29.399C6.71145 21.9724 12.6069 15.8661 19.9275 12.2203L21.9376 16.2411C15.5471 19.4368 10.3717 24.778 7.3865 31.2744C4.40127 37.7708 3.71122 45.1824 5.45135 52.1139C7.19148 59.0604 11.2868 65.2567 16.9872 69.5776C22.6877 73.8986 29.7532 76.164 36.9088 75.969C44.0493 75.774 50.9949 73.1034 56.4403 68.4674C61.8857 63.8314 65.621 57.41 66.9711 50.3735C68.3212 43.352 67.2111 35.9854 63.8659 29.669C60.5206 23.3527 55.0602 18.3116 48.4897 15.476L50.2748 11.3351C57.7754 14.5608 64.0159 20.322 67.8412 27.5536C71.6665 34.7701 72.9266 43.1719 71.3964 51.2137C69.8663 59.2404 65.591 66.592 59.3655 71.8881C53.14 77.1843 45.2194 80.2299 37.0438 80.455C36.6838 80.5 36.3537 80.5 36.0087 80.5Z" fill="#2A562B"/>
<path fill-rule="evenodd" clip-rule="evenodd" d="M11.5928 64.6944C14.581 69.5001 18.9356 73.3679 24.1135 75.7545C23.9515 75.592 23.7962 75.4717 23.7154 75.4717C23.5491 75.4717 23.5729 75.0678 23.7392 74.9015C23.9293 74.7114 24.7252 74.7232 26.8518 74.9609C29.5843 75.2579 30.1664 75.246 31.0575 74.8302C31.8178 74.4856 32.0317 74.2599 32.0317 73.8322C32.0317 73.2738 30.6892 72.5967 29.1091 72.3709L28.2299 72.2403V70.7909V69.3533L29.0378 68.4385C29.4774 67.9396 30.107 67.298 30.4278 67.001C31.0099 66.4783 32.1148 65.7298 32.293 65.7298C32.3405 65.7298 32.4118 65.908 32.4356 66.11C32.6138 67.1317 32.887 70.1256 32.9464 71.6462C32.994 72.7511 33.0652 73.4045 33.1603 73.4996C33.2183 73.5576 33.3458 73.6677 33.4821 73.7855C33.5412 73.8365 33.6018 73.8889 33.6593 73.9391C34.2058 74.4025 34.5978 74.9965 34.9899 75.9707C35.429 77.0801 35.8132 77.8997 36.1327 78.4036C36.1686 78.4037 36.2045 78.4038 36.2404 78.4038C38.2696 78.4038 40.25 78.1954 42.1616 77.7989C41.8885 77.387 41.5128 76.9224 41.3221 76.8023C40.9894 76.6003 41.0132 76.6003 42.7121 76.6003C44.2447 76.6003 44.4941 76.5766 44.8624 76.3509C45.3852 76.0538 45.4446 75.6974 45.0644 75.1272C44.6011 74.4262 43.6625 73.8916 42.8665 73.8679L42.8652 73.8678C42.2131 73.8441 42.2009 73.8437 41.7379 73.2026C40.7637 71.8601 40.7162 71.6938 40.8231 69.8879C40.8685 69.2156 40.9696 67.4454 41.0783 65.5392C41.1118 64.9529 41.146 64.3537 41.1795 63.7696L41.429 59.255L42.427 56.9265C42.9735 55.6553 43.6388 53.9683 43.912 53.1842C44.3516 51.9486 44.411 51.6397 44.4229 50.6893C44.4347 49.7151 44.3991 49.5488 44.0546 48.8479C43.8526 48.4321 43.4605 47.7905 43.1992 47.4341C42.819 46.9114 42.6883 46.6144 42.6052 46.0441C42.5101 45.3075 42.3676 45.0105 41.726 44.1789C41.642 44.0696 41.5777 43.9861 41.5276 43.8949C41.365 43.5993 41.35 43.2225 41.2864 41.6246C41.2389 40.4722 41.1439 39.2961 41.0726 38.9991C41.0013 38.7021 40.9419 38.1556 40.9419 37.7873C40.9419 37.2051 40.9894 37.0507 41.2746 36.7656C41.4528 36.5755 41.9755 36.2666 42.427 36.0884C43.6863 35.5894 45.4446 34.6627 46.1099 34.1519C46.8464 33.5935 47.191 33.0945 47.3454 32.3342C47.5117 31.5738 47.5117 28.8414 47.3573 28.5325C47.191 28.2355 46.7158 28.2355 44.5654 28.5444C43.6506 28.675 42.4388 28.8176 41.8567 28.8651C40.8706 28.9364 40.7994 28.9245 40.5023 28.6513C40.336 28.4968 40.0984 28.1404 39.9677 27.8553L39.742 27.3563H38.2926C34.6335 27.3563 31.9604 28.1404 30.5466 29.6136C29.7982 30.4096 29.6675 30.6709 29.5249 31.7758C29.4774 32.2154 29.2873 33.047 29.1091 33.6173C28.8109 34.6223 28.6513 35.1499 28.5659 35.6893C28.4676 36.3103 28.4676 36.9469 28.4676 38.3456C28.4676 41.1494 28.4319 41.3632 27.6359 43.0859C27.3746 43.6562 26.9944 44.6185 26.8043 45.2244C26.2578 46.9351 26.1034 47.1371 19.5573 54.7999C13.3802 62.0336 12.5985 62.9423 12.0039 63.9602C11.9031 64.1326 11.8078 64.3081 11.6925 64.518C11.6585 64.5782 11.6252 64.6373 11.5928 64.6944ZM34.4434 32.4649C34.2295 31.9778 33.98 31.4432 33.9088 31.3006C33.7424 30.9798 33.0177 30.4096 33.1246 30.6947C33.7305 32.156 34.182 33.1183 34.681 33.9262C35.667 35.5181 35.9522 36.1478 35.9522 36.7537C35.9522 37.3358 35.8215 37.514 35.1799 37.8467C34.978 37.9417 34.6097 38.0605 34.3721 38.108C33.8375 38.215 33.8493 38.4526 34.3958 38.5001C34.9067 38.5476 35.8571 38.2268 36.1898 37.8704C36.8313 37.1932 36.5937 35.9458 35.5126 34.342C35.1443 33.7955 34.6691 32.952 34.4434 32.4649ZM37.2828 71.2542L37.2352 67.9633C37.2115 65.6229 37.1521 64.625 37.057 64.5299C36.7363 64.2091 36.665 65.0408 36.665 69.4484V73.8679L37.8887 75.1509C39.0529 76.3865 39.1123 76.434 39.5757 76.4103C39.837 76.3984 39.9558 76.3746 39.8489 76.339C39.7064 76.3033 39.6351 76.1726 39.6351 75.9707C39.6351 75.0321 38.8985 73.4045 37.8649 72.0264L37.2828 71.2542Z" fill="#2A562B"/>
</svg>
