<svg width="75" height="80" viewBox="0 0 75 80" fill="none" xmlns="http://www.w3.org/2000/svg">
<path fill-rule="evenodd" clip-rule="evenodd" d="M31.6352 0.0969913C29.1374 0.589324 27.3294 2.97894 27.4841 5.5847C27.603 7.46998 29.3991 11.7209 31.0762 14.0865C32.563 16.1759 34.6802 18.0371 36.5476 18.9017C37.2256 19.2139 37.2494 19.2139 37.6062 19.0098C41.1507 16.9444 44.4098 13.354 45.849 9.91964C46.4794 8.41862 47.086 6.16109 47.086 5.32052C47.086 2.67874 45.1472 0.445227 42.5186 0.060967C40.6155 -0.21522 38.641 0.661373 37.511 2.29448L37.2731 2.63071L36.8212 2.0303C35.6674 0.493259 33.5621 -0.287269 31.6352 0.0969913ZM42.7921 4.50397C43.5772 4.88823 43.5772 4.90024 40.1159 10.0037C38.3674 12.5734 36.8568 14.7469 36.7498 14.831C36.4405 15.0711 35.9648 15.0111 35.7031 14.7229C35.4295 14.4107 33.1577 11.0964 32.9436 10.7002C32.7771 10.388 32.8603 10.1958 33.1458 10.1958C33.2528 10.1958 34.0617 10.472 34.9418 10.7962C35.822 11.1204 36.5952 11.3966 36.6784 11.3966C36.7617 11.3966 37.4991 9.94365 38.3436 8.16645C39.1881 6.38925 39.9732 4.80418 40.1159 4.67209C40.2586 4.54 40.5084 4.37188 40.663 4.29983C41.0674 4.13172 42.2688 4.23979 42.7921 4.50397Z" fill="#C02F1B"/>
<path d="M37.2323 80C29.1356 80 21.194 77.3318 14.726 72.4296C7.99425 67.3259 3.15485 59.9882 1.10741 51.7973C-0.940033 43.5909 -0.133466 34.857 3.40302 27.1626C6.93951 19.4836 13.0353 13.1698 20.6046 9.40013L22.6831 13.5576C16.0754 16.8619 10.7242 22.3846 7.6375 29.1017C4.55083 35.8189 3.83733 43.4823 5.63659 50.6493C7.43585 57.8319 11.6703 64.2388 17.5645 68.7065C23.4586 73.1743 30.7643 75.5167 38.163 75.3151C45.5462 75.1134 52.7277 72.3521 58.3582 67.5585C63.9886 62.765 67.8508 56.1254 69.2468 48.8498C70.6428 41.5897 69.495 33.9728 66.0361 27.4418C62.5771 20.9108 56.9312 15.6984 50.1374 12.7665L51.9832 8.48486C59.7386 11.8202 66.1912 17.7772 70.1464 25.2545C74.1017 32.7162 75.4046 41.4035 73.8225 49.7185C72.2404 58.018 67.8198 65.6194 61.3828 71.0955C54.9458 76.5716 46.756 79.7208 38.3026 79.9535C37.9303 80 37.5891 80 37.2323 80Z" fill="#2A562B"/>
<path fill-rule="evenodd" clip-rule="evenodd" d="M26.7701 51.4171C24.9787 54.1002 23.5054 56.3335 23.4899 56.3723C23.4744 56.4111 24.1645 56.4421 25.0951 56.4421C25.9946 56.4421 26.7313 56.4653 26.7313 56.5041C26.7313 56.5351 26.3668 58.373 25.9248 60.5908C25.4828 62.8086 25.1261 64.6309 25.1338 64.6464C25.1649 64.6697 31.6942 54.8602 31.6942 54.7904C31.6942 54.7593 30.9653 54.7361 30.0657 54.7361C29.174 54.7361 28.4373 54.7283 28.4373 54.7128C28.4373 54.7051 28.8017 52.8672 29.2515 50.6262C29.7013 48.3928 30.058 46.555 30.0425 46.5473C30.0347 46.5395 28.5614 48.7263 26.7701 51.4171ZM33.9822 25.0903C29.2675 25.7029 25.8942 28.89 25.2196 33.3721C25.1575 33.7986 25.1033 34.2949 25.1033 34.4733V34.7912L24.5837 34.8455C22.7924 35.0161 21.4896 35.4969 20.2024 36.4429C17.907 38.149 16.6353 41.2896 17.0463 44.2285C17.3099 46.1206 18.0001 47.594 19.2408 48.8968C20.6366 50.3624 22.5675 51.3162 24.2425 51.3472L24.8163 51.3627L28.1818 46.5549C30.0352 43.9106 31.5938 41.7005 31.6481 41.6463C31.7101 41.5765 31.5938 42.9956 31.2526 46.3765C31.156 47.3517 31.0655 48.2674 30.9894 49.0385C30.8579 50.3707 30.769 51.2712 30.7641 51.3007C30.7641 51.3782 31.8807 51.4015 36.0992 51.4015L41.4266 51.3938L44.8696 46.4696C46.7618 43.7633 48.3204 41.5532 48.3282 41.5687C48.3514 41.592 47.4984 50.2151 47.3976 51.037L47.3511 51.4015H49.0649C50.9802 51.4015 51.5851 51.3162 52.5389 50.9207C54.4543 50.1298 55.8579 48.5246 56.455 46.4541C56.6876 45.6166 56.6876 44.0424 56.4394 43.1429C56.0207 41.5687 54.9816 40.0721 53.7409 39.2423L53.3299 38.9709V38.2032C53.3299 35.9389 52.2442 33.8917 50.3909 32.651C49.251 31.8833 48.0955 31.5343 46.7385 31.5343C46.2732 31.5343 45.6761 31.5886 45.3582 31.6584L45.35 31.6602C44.8711 31.7641 44.6765 31.8063 44.5644 31.729C44.4876 31.676 44.4495 31.5671 44.3853 31.3835L44.3811 31.3715C44.1562 30.7356 43.5126 29.5414 43.0706 28.952C41.2095 26.4628 38.2007 25.005 35.0291 25.0515C34.5793 25.0515 34.1141 25.0748 33.9822 25.0903ZM39.2166 38.2032C38.7901 39.917 38.4411 41.3516 38.4411 41.3981C38.4411 41.4446 39.046 41.4834 40.0618 41.4912L41.6825 41.5144L38.4178 45.6011C36.6188 47.8499 35.1377 49.6722 35.1221 49.6645C35.1066 49.6412 36.5723 43.678 36.7041 43.2437C36.7429 43.1196 36.6188 43.1041 35.1066 43.0886L33.4627 43.0653L36.7041 39.0097C38.4876 36.7764 39.961 34.9851 39.9765 35.0239C39.9843 35.0626 39.6508 36.4972 39.2166 38.2032ZM40.0695 56.4033L43.3419 51.4946C45.141 48.8038 46.6221 46.6015 46.6376 46.617C46.6531 46.6403 45.2108 53.9838 45.0712 54.5577L45.0324 54.736H46.6996H48.3669L45.0944 59.6524C43.2876 62.3588 41.8065 64.5456 41.791 64.5145C41.7832 64.4913 42.1399 62.6612 42.5742 60.4589L43.3807 56.442L41.729 56.4265L40.0695 56.4033Z" fill="#2A562B"/>
</svg>
