<svg width="104" height="110" viewBox="0 0 104 110" fill="none" xmlns="http://www.w3.org/2000/svg">
<path fill-rule="evenodd" clip-rule="evenodd" d="M63.8277 33.1508C68.8371 39.7241 73.8458 46.2979 78.856 52.8723C79.9188 54.4356 82.2188 54.6368 83.8923 53.3879C85.5651 52.1379 85.8919 49.97 84.8284 48.4056C79.8113 41.8209 74.7956 35.2369 69.7793 28.6534C68.5933 27.174 66.2991 26.9803 64.6318 28.2383C63.0877 29.4125 62.6425 31.6725 63.8277 33.1508Z" fill="#2A562B"/>
<path fill-rule="evenodd" clip-rule="evenodd" d="M54.5867 100.063C62.376 98.4535 70.1657 96.8454 77.9564 95.2361C79.7728 94.9866 80.612 92.7131 79.8667 90.2988C79.1202 87.8846 77.105 86.3648 75.2872 86.6144C67.4847 88.2254 59.6831 89.8351 51.8819 91.4458C50.1124 91.8686 49.2823 94.1402 50.0381 96.5531C50.7469 98.7927 52.8185 100.485 54.5867 100.063Z" fill="#2A562B"/>
<path fill-rule="evenodd" clip-rule="evenodd" d="M32.1454 59.0454C44.8171 63.7897 57.4886 68.5351 70.1623 73.2802C73.0364 74.4917 75.753 73.2478 76.1935 70.6476C76.6318 68.0466 74.5995 65.2013 71.7234 63.989C59.0308 59.2359 46.3406 54.4826 33.6502 49.7304C30.7347 48.7005 28.0328 49.9498 27.609 52.557C27.2267 54.9827 29.232 58.0164 32.1454 59.0454Z" fill="#2A562B"/>
</svg>
