<?xml version="1.0" encoding="UTF-8"?>
<!DOCTYPE svg PUBLIC "-//W3C//DTD SVG 1.1//EN" "http://www.w3.org/Graphics/SVG/1.1/DTD/svg11.dtd">
<svg xmlns="http://www.w3.org/2000/svg" version="1.1" width="1080px" height="1920px" style="shape-rendering:geometricPrecision; text-rendering:geometricPrecision; image-rendering:optimizeQuality; fill-rule:evenodd; clip-rule:evenodd" xmlns:xlink="http://www.w3.org/1999/xlink">
<g><path style="opacity:1" fill="#fefefe" d="M 1079.5,418.5 C 1079.5,659.167 1079.5,899.833 1079.5,1140.5C 1078.17,1140.5 1076.83,1140.5 1075.5,1140.5C 1066.1,1183.96 1047.6,1222.96 1020,1257.5C 983.034,1301.14 939.534,1336.64 889.5,1364C 809.587,1406.3 724.587,1432.3 634.5,1442C 509.941,1456.34 388.607,1442.68 270.5,1401C 203.795,1377.01 144.462,1341.34 92.5,1294C 53.4637,1257.78 25.6303,1214.28 9,1163.5C 6.69163,1155.93 4.8583,1148.27 3.5,1140.5C 2.16667,1140.5 0.833333,1140.5 -0.5,1140.5C -0.5,900.5 -0.5,660.5 -0.5,420.5C 1.16667,420.5 2.83333,420.5 4.5,420.5C 8.63917,373.575 25.4725,331.909 55,295.5C 64.3035,284.029 74.4702,273.363 85.5,263.5C 87.7488,262.92 89.4154,261.587 90.5,259.5C 105.84,244.999 122.507,232.166 140.5,221C 194.951,188.618 253.284,165.952 315.5,153C 471.701,123.544 624.701,135.544 774.5,189C 861.869,219.82 939.536,266.153 1007.5,328C 1035.55,355.185 1059.55,385.352 1079.5,418.5 Z"/></g>
<g><path style="opacity:0.922" fill="#a3a3a3" d="M 90.5,259.5 C 89.4154,261.587 87.7488,262.92 85.5,263.5C 86.5846,261.413 88.2512,260.08 90.5,259.5 Z"/></g>
</svg>
