<svg width="56" height="58" viewBox="0 0 56 58" fill="none" xmlns="http://www.w3.org/2000/svg">
<mask id="mask0_160_2077" style="mask-type:alpha" maskUnits="userSpaceOnUse" x="0" y="0" width="56" height="58">
<rect x="1.8562" y="1" width="52.7435" height="55.1445" rx="7" stroke="#F957A6" stroke-width="2"/>
</mask>
<g mask="url(#mask0_160_2077)">
<path d="M45.2557 55.6898C46.2157 60.0025 50.5527 62.7982 54.5423 60.8997C56.5046 59.9659 58.3821 58.8517 60.1498 57.5683C64.0833 54.7126 67.3891 51.0802 69.8627 46.8958C72.3364 42.7114 73.9252 38.064 74.531 33.2411C75.1368 28.4181 74.7467 23.5221 73.3848 18.856C72.0228 14.1898 69.7181 9.8527 66.613 6.11285C63.508 2.37299 59.6686 -0.690058 55.3325 -2.88686C50.9964 -5.08366 46.2557 -6.36749 41.4036 -6.65896C39.2231 -6.78994 37.0409 -6.71926 34.8844 -6.45089C30.5 -5.90526 28.3478 -1.21552 29.8585 2.93649L39.2728 28.8124L45.2557 55.6898Z" fill="#799477"/>
</g>
<g filter="url(#filter0_i_160_2077)">
<rect x="7.57935" y="7.68335" width="41.7779" height="41.7779" rx="8" fill="#7F937B"/>
</g>
<rect x="1.85645" y="1" width="52.7435" height="55.1445" rx="7" stroke="#799477" stroke-opacity="0.3" stroke-width="2"/>
<path d="M40.118 22.6809C40.2824 22.1116 40.118 21.6941 39.3407 21.6941H36.7656C36.1103 21.6941 35.8109 22.0553 35.6465 22.452C35.6465 22.452 34.3372 25.7809 32.4819 27.9394C31.883 28.5675 31.6094 28.7659 31.283 28.7659C31.1198 28.7659 30.8826 28.5675 30.8826 27.9982V22.6809C30.8826 21.9977 30.6935 21.6941 30.1475 21.6941H26.101C25.6924 21.6941 25.4458 22.01 25.4458 22.3112C25.4458 22.9576 26.3735 23.107 26.4686 24.9288V28.8809C26.4686 29.7465 26.3195 29.9045 25.9907 29.9045C25.1182 29.9045 22.9952 26.5633 21.7352 22.7384C21.4898 21.9953 21.242 21.6953 20.5844 21.6953H18.0105C17.2742 21.6953 17.1274 22.0565 17.1274 22.4532C17.1274 23.1657 17.9999 26.6918 21.1915 31.3553C23.3193 34.5398 26.3148 36.2661 29.0437 36.2661C30.6794 36.2661 30.8814 35.8829 30.8814 35.2218V32.8147C30.8814 32.0483 31.0376 31.894 31.5554 31.894C31.9359 31.894 32.5911 32.0948 34.1188 33.6289C35.8637 35.4483 36.1526 36.2649 37.1331 36.2649H39.7071C40.4421 36.2649 40.8097 35.8817 40.5983 35.125C40.367 34.3721 39.5333 33.2763 38.4271 31.9797C37.8259 31.2402 36.9276 30.4444 36.654 30.0465C36.2724 29.5335 36.3828 29.307 36.654 28.8516C36.6552 28.8528 39.7916 24.2468 40.118 22.6809Z" fill="#F8F8F8"/>
<defs>
<filter id="filter0_i_160_2077" x="7.57935" y="7.68335" width="41.7778" height="51.7778" filterUnits="userSpaceOnUse" color-interpolation-filters="sRGB">
<feFlood flood-opacity="0" result="BackgroundImageFix"/>
<feBlend mode="normal" in="SourceGraphic" in2="BackgroundImageFix" result="shape"/>
<feColorMatrix in="SourceAlpha" type="matrix" values="0 0 0 0 0 0 0 0 0 0 0 0 0 0 0 0 0 0 127 0" result="hardAlpha"/>
<feOffset dy="10"/>
<feGaussianBlur stdDeviation="5"/>
<feComposite in2="hardAlpha" operator="arithmetic" k2="-1" k3="1"/>
<feColorMatrix type="matrix" values="0 0 0 0 0.754167 0 0 0 0 0.0157118 0 0 0 0 0.448599 0 0 0 0.1 0"/>
<feBlend mode="normal" in2="shape" result="effect1_innerShadow_160_2077"/>
</filter>
</defs>
</svg>
