<svg width="270" height="167" viewBox="0 0 270 167" fill="none" xmlns="http://www.w3.org/2000/svg">
<path d="M104 135.5L103.326 136.239L104 135.5ZM102.5 107L103.116 107.788L102.5 107ZM69.5 160.5L69.174 161.445L69.5 160.5ZM0.292893 154.793C-0.0976311 155.184 -0.0976311 155.817 0.292893 156.207L6.65685 162.571C7.04738 162.962 7.68054 162.962 8.07107 162.571C8.46159 162.181 8.46159 161.548 8.07107 161.157L2.41421 155.5L8.07107 149.843C8.46159 149.453 8.46159 148.82 8.07107 148.429C7.68054 148.039 7.04738 148.039 6.65685 148.429L0.292893 154.793ZM195.5 2C218.691 1.99999 235.141 8.25315 246.366 17.9535C257.596 27.658 263.698 40.9003 266.026 55.0622C268.354 69.2304 266.895 84.2783 263.038 97.498C259.177 110.733 252.943 122.034 245.813 128.773L247.187 130.227C254.658 123.166 261.035 111.505 264.958 98.0582C268.886 84.5967 270.383 69.2446 267.999 54.7378C265.614 40.2247 259.335 26.517 247.674 16.4402C236.009 6.35933 219.059 -5.84126e-06 195.5 0V2ZM245.813 128.773C238.704 135.493 227.416 140.234 214.083 143.286C200.775 146.332 185.547 147.669 170.675 147.663C155.805 147.656 141.326 146.308 129.523 144.001C123.621 142.848 118.406 141.459 114.153 139.887C109.883 138.307 106.659 136.571 104.674 134.761L103.326 136.239C105.591 138.304 109.096 140.149 113.459 141.762C117.841 143.383 123.167 144.797 129.139 145.964C141.086 148.299 155.695 149.656 170.675 149.663C185.653 149.669 201.038 148.324 214.529 145.236C227.997 142.153 239.696 137.307 247.187 130.227L245.813 128.773ZM104.674 134.761C100.828 131.255 97.7366 126.57 96.9595 121.762C96.1956 117.036 97.6427 112.071 103.116 107.788L101.884 106.213C95.8573 110.929 94.1008 116.609 94.9851 122.081C95.8562 127.471 99.2648 132.536 103.326 136.239L104.674 134.761ZM103.116 107.788C108.082 103.901 112.86 102.373 117.173 102.439C121.491 102.505 125.438 104.17 128.733 106.834C135.362 112.196 139.203 121.483 138.011 129.35L139.989 129.65C141.297 121.017 137.12 111.046 129.99 105.279C126.405 102.379 122.037 100.513 117.203 100.439C112.363 100.365 107.15 102.091 101.884 106.213L103.116 107.788ZM138.011 129.35C136.445 139.686 132.852 147.187 128.039 152.527C123.225 157.867 117.136 161.106 110.478 162.827C97.1214 166.28 81.5538 163.599 69.826 159.555L69.174 161.445C81.0806 165.551 97.0833 168.355 110.978 164.763C117.946 162.962 124.403 159.547 129.524 153.866C134.645 148.185 138.375 140.299 139.989 129.65L138.011 129.35ZM69.826 159.555C55.2468 154.527 46.8852 153.25 37.6875 153.25C33.1215 153.25 28.3485 153.565 22.5479 153.877C16.7365 154.189 9.84995 154.5 1 154.5V156.5C9.90005 156.5 16.826 156.187 22.6552 155.874C28.4952 155.56 33.191 155.25 37.6875 155.25C46.6148 155.25 54.7532 156.473 69.174 161.445L69.826 159.555Z" fill="#90A78D"/>
</svg>
